<?xml version="1.0" standalone="no"?>
<!DOCTYPE svg PUBLIC "-//W3C//DTD SVG 20010904//EN"
 "http://www.w3.org/TR/2001/REC-SVG-20010904/DTD/svg10.dtd">
<svg version="1.0" xmlns="http://www.w3.org/2000/svg"
 width="910.000000pt" height="910.000000pt" viewBox="0 0 910.000000 910.000000"
 preserveAspectRatio="xMidYMid meet">

<g transform="translate(0.000000,910.000000) scale(0.100000,-0.100000)"
fill="#000000" stroke="none">
<path d="M7835 7456 c-18 -13 -328 -148 -560 -246 -477 -200 -900 -370 -1275
-512 -58 -21 -136 -53 -173 -70 l-68 -32 6 -65 c4 -36 24 -165 47 -286 87
-481 167 -723 307 -934 33 -51 61 -97 61 -102 0 -6 7 -6 18 -1 19 11 226 72
762 226 960 276 1460 435 1460 463 0 7 -27 55 -60 107 -105 167 -200 351 -257
501 -46 119 -119 335 -128 377 -4 18 -22 98 -40 178 -19 80 -39 186 -45 235
-22 194 -19 186 -55 161z m-25 -633 c0 -10 9 -32 20 -50 l19 -32 -62 -20 c-58
-18 -296 -106 -537 -199 -58 -23 -235 -88 -395 -146 -159 -58 -355 -131 -435
-161 -80 -31 -206 -78 -280 -105 -74 -26 -148 -53 -164 -59 -32 -13 -31 -14
-40 15 -6 19 -1 23 39 33 25 6 100 34 168 62 67 28 178 72 247 99 137 53 404
160 545 220 50 20 135 54 190 75 55 21 145 57 200 80 55 24 165 69 245 100 80
31 163 68 185 81 48 29 55 29 55 7z m87 -257 c19 -59 33 -109 31 -111 -7 -6
-260 -85 -448 -140 -107 -31 -229 -68 -270 -81 -336 -106 -1180 -350 -1184
-342 -1 2 -19 24 -40 51 -30 38 -34 47 -19 47 10 0 56 14 103 31 47 16 123 43
170 58 47 16 128 45 180 65 52 20 145 55 205 77 61 23 144 54 185 70 41 16
138 52 215 79 77 28 190 70 250 94 104 40 170 65 410 151 55 19 114 42 130 50
17 7 34 13 38 12 5 -2 24 -51 44 -111z"/>
<path d="M7937 7328 c31 -264 100 -503 255 -888 28 -69 71 -165 96 -215 49
-98 142 -249 149 -241 2 2 -1 66 -7 143 -31 365 -206 848 -408 1120 -46 62
-85 113 -86 113 -1 0 -1 -15 1 -32z"/>
<path d="M4905 6846 c-43 -18 -65 -57 -65 -111 0 -35 -4 -47 -17 -51 -33 -11
-109 -43 -189 -80 -105 -49 -317 -141 -379 -166 -27 -11 -102 -44 -165 -73
-255 -117 -429 -195 -434 -195 -3 0 -34 -13 -68 -29 -35 -16 -146 -66 -248
-111 -174 -77 -380 -170 -389 -177 -2 -1 8 -21 23 -44 32 -47 36 -47 141 1 35
16 239 105 452 196 547 236 608 262 698 299 44 17 168 70 275 117 107 47 213
91 235 98 22 7 44 16 49 21 6 5 13 9 17 9 14 0 39 -83 39 -133 1 -46 2 -50 14
-34 23 30 120 132 123 130 16 -14 7 6 -21 47 -31 46 -54 105 -44 116 3 2 23
-5 46 -16 54 -26 84 -25 110 3 26 27 27 45 7 92 -34 83 -132 125 -210 91z"/>
<path d="M5515 6551 c-60 -18 -112 -35 -114 -37 -2 -2 22 -33 53 -71 93 -112
203 -343 213 -448 4 -48 -1 -82 -26 -175 -36 -133 -65 -210 -98 -262 -13 -21
-23 -45 -23 -53 0 -27 50 -136 132 -288 64 -117 84 -147 97 -142 9 4 84 26
166 50 193 57 228 69 233 83 2 8 -13 12 -46 12 -59 0 -58 0 -141 147 -56 100
-129 261 -165 363 -13 36 -38 99 -55 140 -41 96 -101 416 -110 590 l-6 126
-110 -35z"/>
<path d="M5095 6496 c-75 -35 -175 -137 -219 -224 -48 -95 -66 -169 -66 -269
0 -98 28 -182 92 -281 53 -81 110 -125 194 -148 58 -15 74 -16 128 -5 87 17
160 55 201 105 75 92 89 226 23 226 -15 0 -18 -8 -18 -45 0 -59 -19 -103 -64
-148 -51 -52 -110 -79 -182 -85 -51 -4 -71 0 -116 20 -143 66 -214 204 -181
351 18 79 34 107 91 158 65 59 135 83 215 76 167 -14 261 -94 360 -309 l44
-93 18 54 c35 106 -7 297 -92 424 -127 187 -286 260 -428 193z"/>
<path d="M4655 6111 c-60 -21 -186 -68 -280 -105 -93 -36 -210 -82 -260 -101
-154 -58 -356 -135 -445 -170 -47 -19 -111 -42 -142 -52 l-57 -18 -7 -54 c-20
-163 43 -492 141 -731 29 -68 136 -286 177 -356 l23 -42 90 34 c118 45 235 82
430 139 270 79 997 298 1062 320 7 2 -6 22 -30 47 -23 24 -85 95 -138 158 -94
112 -177 196 -249 253 l-35 27 30 -6 c17 -4 46 -15 65 -25 19 -9 66 -32 103
-50 85 -40 121 -83 217 -256 59 -105 78 -133 95 -133 12 0 26 5 31 10 16 16
35 -11 116 -165 89 -167 151 -270 186 -307 22 -24 34 -28 82 -28 118 0 111 46
-49 294 -80 125 -116 194 -173 336 -16 41 -59 139 -95 218 -49 106 -70 142
-84 142 -32 0 -30 -17 12 -112 46 -105 81 -199 75 -205 -4 -5 -125 225 -148
283 l-17 43 32 6 c68 14 101 47 136 135 32 81 37 130 14 137 -6 2 -17 -13 -23
-34 -34 -102 -103 -192 -169 -220 -58 -24 -171 -28 -251 -9 -110 27 -179 63
-241 126 -66 67 -91 116 -120 228 -18 74 -19 91 -9 174 6 50 13 95 16 100 3 4
4 8 2 7 -2 0 -52 -17 -113 -38z m127 -568 l45 -58 -61 -1 c-94 -1 -217 -35
-689 -191 -142 -47 -260 -83 -263 -81 -2 3 72 31 164 63 448 156 675 250 725
301 12 12 25 22 28 23 3 1 26 -25 51 -56z"/>
<path d="M3070 5519 c-353 -136 -389 -149 -411 -149 -25 0 -33 -66 -26 -224
10 -225 79 -436 203 -623 69 -104 138 -180 207 -227 l54 -37 61 15 c33 9 173
53 311 99 l250 83 -40 59 c-87 130 -171 323 -234 539 -44 154 -64 277 -72 444
-3 72 -9 132 -12 131 -3 0 -134 -50 -291 -110z"/>
<path d="M2532 5609 c-67 -11 -142 -49 -175 -88 -34 -41 -74 -127 -93 -203
-23 -88 -14 -354 15 -493 61 -281 218 -580 401 -766 72 -73 109 -91 195 -96
64 -4 75 -1 122 26 53 31 157 153 150 175 -2 6 -26 15 -53 21 -69 14 -98 33
-190 123 -172 168 -262 326 -335 589 -30 106 -38 355 -15 461 17 82 59 183 87
208 11 9 19 25 19 36 0 20 -34 22 -128 7z"/>
<path d="M2152 5218 c-31 -16 -36 -42 -29 -192 10 -244 94 -529 229 -776 65
-119 96 -160 171 -232 64 -61 75 -68 111 -68 l41 0 -25 20 c-14 11 -28 20 -31
20 -8 0 -97 113 -161 205 -176 251 -300 670 -286 963 1 39 3 72 3 71 0 0 -10
-5 -23 -11z"/>
<path d="M2041 4984 l-1 -80 -57 -18 c-71 -22 -455 -170 -503 -194 -30 -14
-36 -23 -42 -62 -3 -25 -13 -65 -22 -89 -21 -57 -20 -74 3 -95 16 -14 29 -16
63 -11 35 6 328 108 416 145 35 15 37 13 38 -40 1 -35 -3 -50 -12 -50 -7 0
-100 -29 -206 -65 -106 -36 -211 -66 -235 -68 -46 -2 -46 -2 -21 -87 27 -91
155 -286 212 -323 24 -16 29 -16 138 23 109 39 291 97 449 143 l76 22 -53 97
c-100 179 -223 553 -225 684 0 27 -4 72 -9 99 -7 48 -7 46 -9 -31z m-113 -296
c-2 -6 -80 -38 -174 -70 -237 -83 -254 -88 -254 -78 0 5 15 13 33 18 17 5 100
34 182 65 131 48 202 73 213 76 2 1 2 -4 0 -11z"/>
<path d="M961 4680 c-13 -3 -34 -18 -45 -34 -19 -25 -21 -41 -20 -154 1 -240
71 -457 219 -680 85 -130 110 -145 188 -118 67 24 139 76 178 131 17 24 41 46
53 50 17 5 10 10 -34 23 -108 31 -202 157 -249 332 -24 90 -42 224 -36 274 14
111 16 102 -23 121 -90 43 -186 66 -231 55z"/>
<path d="M4355 4617 c-68 -34 -132 -99 -163 -166 -22 -49 -26 -75 -31 -208 -6
-150 -6 -153 14 -146 11 3 152 6 312 5 l293 0 3 91 c6 232 -11 298 -95 368
-71 59 -104 72 -198 76 -74 4 -91 1 -135 -20z m199 -131 c19 -8 37 -20 41 -27
5 -7 -2 -5 -16 4 -38 27 -116 22 -164 -11 -58 -40 -88 -89 -82 -133 7 -54 35
-104 65 -120 46 -23 48 -23 18 1 -36 30 -56 77 -56 136 0 38 5 51 30 74 63 59
160 65 210 13 32 -32 61 -111 53 -145 -14 -64 -79 -120 -152 -133 -52 -9 -130
30 -161 80 -56 91 -23 202 73 250 58 28 93 31 141 11z"/>
<path d="M1340 4607 c-44 -35 -55 -69 -55 -172 0 -83 5 -115 29 -185 52 -154
147 -300 197 -300 9 0 25 -3 35 -7 25 -9 15 13 -39 83 -61 81 -91 144 -121
255 -14 52 -31 113 -38 136 -9 33 -9 56 2 110 7 37 15 74 18 81 5 15 -8 15
-28 -1z"/>
<path d="M5608 4611 c-1 -5 -91 -32 -198 -59 -107 -28 -247 -67 -310 -86 -63
-20 -149 -46 -190 -58 l-75 -22 0 -54 c0 -43 3 -52 15 -48 160 50 325 98 545
157 149 40 271 73 272 74 4 2 -46 105 -51 105 -2 0 -6 -4 -8 -9z"/>
<path d="M4115 4018 c-4 -18 -18 -64 -31 -101 -13 -38 -24 -72 -24 -78 0 -10
792 -13 803 -3 5 6 -26 99 -60 177 l-16 37 -333 0 -332 0 -7 -32z"/>
<path d="M3990 3705 l0 -62 38 -7 c20 -3 51 -6 68 -6 l32 0 6 -127 c3 -71 11
-202 16 -293 15 -235 28 -455 35 -600 7 -136 29 -471 45 -670 5 -69 10 -137
10 -152 l0 -28 294 0 295 0 5 43 c10 69 26 883 26 1272 0 198 3 404 7 458 l6
97 52 0 c59 0 65 7 65 88 l0 42 -192 1 c-106 0 -331 2 -500 3 l-308 3 0 -62z
m625 -177 c-4 -35 -2 -427 5 -872 6 -444 10 -809 8 -811 -2 -2 -28 -5 -58 -7
l-55 -3 -11 590 c-7 325 -15 719 -19 878 l-7 287 72 0 72 0 -7 -62z"/>
<path d="M4077 3383 c-4 -15 -30 -58 -59 -94 -119 -149 -275 -345 -313 -394
-77 -100 -233 -270 -500 -545 -153 -158 -216 -242 -280 -367 -37 -74 -80 -223
-92 -326 l-8 -62 -92 -3 -91 -3 -4 -69 -3 -69 75 -3 c41 -2 149 -2 240 0 l165
3 29 110 c31 120 91 253 158 352 23 34 132 154 243 267 110 113 240 255 289
315 49 61 117 138 150 173 58 60 137 122 156 122 14 0 16 19 8 89 -4 36 -7
103 -7 148 -1 45 -5 84 -10 87 -5 3 -21 -18 -36 -47 -50 -96 -271 -402 -315
-437 -4 -3 -28 -32 -55 -65 -26 -33 -49 -62 -51 -64 -6 -7 -44 31 -44 44 0 6
15 29 33 51 54 65 97 122 97 129 0 7 75 118 126 185 22 30 68 96 101 145 34
50 75 108 93 130 32 39 32 41 27 123 -5 89 -20 124 -30 75z"/>
<path d="M4902 3264 c3 -77 7 -98 21 -106 54 -30 184 -228 384 -583 54 -96 55
-115 4 -115 -19 0 -33 11 -52 38 -61 86 -169 280 -258 462 l-95 195 -7 -90
c-4 -49 -7 -136 -8 -193 l-1 -103 88 -92 c48 -51 109 -119 137 -152 27 -33
128 -141 224 -240 347 -359 431 -482 516 -761 l28 -91 216 -5 c119 -3 218 -4
220 -2 1 1 -3 34 -9 73 -14 76 -19 81 -92 81 -35 0 -37 2 -44 38 -14 86 -84
286 -128 366 -68 124 -129 201 -318 398 -214 223 -223 233 -321 357 -45 57
-107 134 -138 170 -30 36 -93 116 -139 176 -99 130 -219 275 -227 275 -3 0 -3
-43 -1 -96z"/>
<path d="M4250 1671 l0 -40 53 -6 c28 -3 159 -5 289 -3 230 3 238 4 238 23 0
11 3 30 6 43 l6 22 -296 0 -296 0 0 -39z"/>
<path d="M4300 1574 c0 -10 5 -53 12 -95 l12 -77 36 -6 c19 -3 119 -6 221 -6
l186 0 6 78 c3 42 8 85 12 95 7 16 -5 17 -171 17 -99 0 -209 3 -246 7 -62 5
-68 4 -68 -13z"/>
<path d="M2717 1380 c6 -22 6 -22 178 -21 150 2 215 10 215 27 0 11 -36 14
-199 14 -194 0 -199 0 -194 -20z"/>
<path d="M5906 1365 c5 -13 36 -15 215 -15 115 0 209 4 209 9 0 12 -108 20
-282 21 -129 1 -147 -1 -142 -15z"/>
</g>
</svg>
